<svg viewBox="0 0 20 20" fill="none" xmlns="http://www.w3.org/2000/svg">
<path d="M17 7V13M3 5V15M15 4.71429L5 3.28571M15 15.2857L5 16.7143M2.6 5H3.4C3.96005 5 4.24008 5 4.45399 4.89101C4.64215 4.79513 4.79513 4.64215 4.89101 4.45399C5 4.24008 5 3.96005 5 3.4V2.6C5 2.03995 5 1.75992 4.89101 1.54601C4.79513 1.35785 4.64215 1.20487 4.45399 1.10899C4.24008 1 3.96005 1 3.4 1H2.6C2.03995 1 1.75992 1 1.54601 1.10899C1.35785 1.20487 1.20487 1.35785 1.10899 1.54601C1 1.75992 1 2.03995 1 2.6V3.4C1 3.96005 1 4.24008 1.10899 4.45399C1.20487 4.64215 1.35785 4.79513 1.54601 4.89101C1.75992 5 2.03995 5 2.6 5ZM2.6 19H3.4C3.96005 19 4.24008 19 4.45399 18.891C4.64215 18.7951 4.79513 18.6422 4.89101 18.454C5 18.2401 5 17.9601 5 17.4V16.6C5 16.0399 5 15.7599 4.89101 15.546C4.79513 15.3578 4.64215 15.2049 4.45399 15.109C4.24008 15 3.96005 15 3.4 15H2.6C2.03995 15 1.75992 15 1.54601 15.109C1.35785 15.2049 1.20487 15.3578 1.10899 15.546C1 15.7599 1 16.0399 1 16.6V17.4C1 17.9601 1 18.2401 1.10899 18.454C1.20487 18.6422 1.35785 18.7951 1.54601 18.891C1.75992 19 2.03995 19 2.6 19ZM16.6 7H17.4C17.9601 7 18.2401 7 18.454 6.89101C18.6422 6.79513 18.7951 6.64215 18.891 6.45399C19 6.24008 19 5.96005 19 5.4V4.6C19 4.03995 19 3.75992 18.891 3.54601C18.7951 3.35785 18.6422 3.20487 18.454 3.10899C18.2401 3 17.9601 3 17.4 3H16.6C16.0399 3 15.7599 3 15.546 3.10899C15.3578 3.20487 15.2049 3.35785 15.109 3.54601C15 3.75992 15 4.03995 15 4.6V5.4C15 5.96005 15 6.24008 15.109 6.45399C15.2049 6.64215 15.3578 6.79513 15.546 6.89101C15.7599 7 16.0399 7 16.6 7ZM16.6 17H17.4C17.9601 17 18.2401 17 18.454 16.891C18.6422 16.7951 18.7951 16.6422 18.891 16.454C19 16.2401 19 15.9601 19 15.4V14.6C19 14.0399 19 13.7599 18.891 13.546C18.7951 13.3578 18.6422 13.2049 18.454 13.109C18.2401 13 17.9601 13 17.4 13H16.6C16.0399 13 15.7599 13 15.546 13.109C15.3578 13.2049 15.2049 13.3578 15.109 13.546C15 13.7599 15 14.0399 15 14.6V15.4C15 15.9601 15 16.2401 15.109 16.454C15.2049 16.6422 15.3578 16.7951 15.546 16.891C15.7599 17 16.0399 17 16.6 17Z" stroke="currentColor" stroke-width="1.67" stroke-linecap="round" stroke-linejoin="round"/>
</svg>
