<svg viewBox="0 0 20 22" fill="none" xmlns="http://www.w3.org/2000/svg">
<path d="M14 4.00007L14 18.0001M8 3.00007L8 19.0001M1 11.0001H19M1 4.98924L1 17.0109C1 18.3749 1 19.0569 1.28134 19.5297C1.52803 19.9442 1.9162 20.2556 2.37434 20.4065C2.89685 20.5785 3.56262 20.4306 4.89418 20.1347L16.4942 17.5569C17.3883 17.3582 17.8354 17.2589 18.1691 17.0185C18.4634 16.8064 18.6945 16.5183 18.8377 16.1849C19 15.807 19 15.3491 19 14.4331V7.56702C19 6.65109 19 6.19312 18.8377 5.8152C18.6945 5.48186 18.4634 5.19373 18.1691 4.98168C17.8354 4.74126 17.3883 4.64191 16.4942 4.44322L4.89418 1.86544C3.56262 1.56954 2.89685 1.42159 2.37434 1.59368C1.9162 1.74457 1.52803 2.05596 1.28134 2.47045C1 2.94318 1 3.6252 1 4.98924Z" stroke="currentColor" stroke-width="1.67" stroke-linecap="round" stroke-linejoin="round"/>
</svg>
