<svg viewBox="0 0 20 20" fill="none" xmlns="http://www.w3.org/2000/svg">
<path d="M14 19H14.2C15.8802 19 16.7202 19 17.362 18.673C17.9265 18.3854 18.3854 17.9265 18.673 17.362C19 16.7202 19 15.8802 19 14.2V5.8C19 4.11984 19 3.27976 18.673 2.63803C18.3854 2.07354 17.9265 1.6146 17.362 1.32698C16.7202 1 15.8802 1 14.2 1H5.8C4.11984 1 3.27976 1 2.63803 1.32698C2.07354 1.6146 1.6146 2.07354 1.32698 2.63803C1 3.27976 1 4.11984 1 5.8V6M9.5 10.5L15 5M15 5H10M15 5V10M4.2 19H6.8C7.9201 19 8.48016 19 8.90798 18.782C9.28431 18.5903 9.59027 18.2843 9.78201 17.908C10 17.4802 10 16.9201 10 15.8V13.2C10 12.0799 10 11.5198 9.78201 11.092C9.59027 10.7157 9.28431 10.4097 8.90798 10.218C8.48016 10 7.92011 10 6.8 10H4.2C3.0799 10 2.51984 10 2.09202 10.218C1.71569 10.4097 1.40973 10.7157 1.21799 11.092C1 11.5198 1 12.0799 1 13.2V15.8C1 16.9201 1 17.4802 1.21799 17.908C1.40973 18.2843 1.71569 18.5903 2.09202 18.782C2.51984 19 3.07989 19 4.2 19Z" stroke="currentColor" stroke-width="1.67" stroke-linecap="round" stroke-linejoin="round"/>
</svg>
